<svg xmlns="http://www.w3.org/2000/svg" viewBox="23 -60 40 40" id="snapvids" width="150"
        height="150">
    <path fill="#7A164E"
            d="M 60 -38 C 60 -38 60 -38 60 -38 C 61 -39 61 -41 60 -42 L 56 -44 M 60 -38 L 28 -22 C 28 -22 26 -22 26 -24 L 26 -56 C 26 -58 28 -58 28 -58 L 44 -50 L 56 -44" />
    <path fill="#CF0046"
            d="M 36 -38 M 36 -38 L 36 -48 C 36 -50 38 -50 38 -50 L 54 -50 C 56 -50 56 -48 56 -48 L 56 -36 L 44 -30 L 38 -30 C 38 -30 36 -30 36 -32 L 36 -38 M 42 -50 C 42 -50 42 -52 44 -52 C 45.3334 -52 46.6666 -52 48 -52 C 50 -52 50 -50 50 -50M 36 -38 M 36 -38 L 36 -48 C 36 -50 38 -50 38 -50 L 54 -50 C 56 -50 56 -48 56 -48 L 56 -36 L 44 -30 L 38 -30 C 38 -30 36 -30 36 -32 L 36 -38 M 44 -36 C 42 -36 42 -38 42 -38 L 42 -42 C 42 -44 44 -44 44 -44 L 48 -44 C 50 -44 50 -42 50 -42 L 50 -38 C 50 -36 48 -36 48 -36 L 44 -36 M 46 -42 M 42 -50 C 42 -50 42 -52 44 -52 C 45.3334 -52 46.6666 -52 48 -52 C 50 -52 50 -50 50 -50 M 44 -40 C 44 -41 45 -42 46 -42 C 47 -42 48 -41 48 -40 C 48 -39 47 -38 46 -38 C 45 -38 44 -39 44 -40 M 50 -48 C 51 -48 51 -47 51 -47 C 51 -47 51 -46 50 -46 C 50 -46 49 -46 49 -47 C 49 -47 49 -48 50 -48" />
    <path fill="#FFFFFF"
            d="M 44 -36 C 42 -36 42 -38 42 -38 L 42 -42 C 42 -44 44 -44 44 -44 L 48 -44 C 50 -44 50 -42 50 -42 L 50 -38 C 50 -36 48 -36 48 -36 L 44 -36" />
    <path fill="#F50133"
            d="M 46 -42 M 44 -40 C 44 -41 45 -42 46 -42 C 47 -42 48 -41 48 -40 C 48 -39 47 -38 46 -38 C 45 -38 44 -39 44 -40" />
    <path fill="#FFFFFF"
            d="M 50 -48 C 51 -48 51 -47 51 -47 C 51 -47 51 -46 50 -46 C 50 -46 49 -46 49 -47 C 49 -47 49 -48 50 -48" />
    <!-- M 36 -38 M 60 -38 C 60 -38 60 -38 60 -38 C 61 -39 61 -41 60 -42 L 56 -44 M 60 -38 L 28 -22 C 28 -22 26 -22 26 -24 L 26 -56 C 26 -58 28 -58 28 -58 L 44 -50 L 56 -44 M 36 -38 L 36 -48 C 36 -50 38 -50 38 -50 L 54 -50 C 56 -50 56 -48 56 -48 L 56 -36 L 44 -30 L 38 -30 C 38 -30 36 -30 36 -32 L 36 -38 M 44 -36 C 42 -36 42 -38 42 -38 L 42 -42 C 42 -44 44 -44 44 -44 L 48 -44 C 50 -44 50 -42 50 -42 L 50 -38 C 50 -36 48 -36 48 -36 L 44 -36 M 46 -42 M 42 -50 C 42 -50 42 -52 44 -52 C 45.3334 -52 46.6666 -52 48 -52 C 50 -52 50 -50 50 -50 M 44 -40 C 44 -41 45 -42 46 -42 C 47 -42 48 -41 48 -40 C 48 -39 47 -38 46 -38 C 45 -38 44 -39 44 -40 M 50 -48 C 51 -48 51 -47 51 -47 C 51 -47 51 -46 50 -46 C 50 -46 49 -46 49 -47 C 49 -47 49 -48 50 -48 -->
</svg>