<svg width="1152" height="1152" xmlns="http://www.w3.org/2000/svg">
 <!-- M 36 -38 M 60 -38 C 60 -38 60 -38 60 -38 C 61 -39 61 -41 60 -42 L 56 -44 M 60 -38 L 28 -22 C 28 -22 26 -22 26 -24 L 26 -56 C 26 -58 28 -58 28 -58 L 44 -50 L 56 -44 M 36 -38 L 36 -48 C 36 -50 38 -50 38 -50 L 54 -50 C 56 -50 56 -48 56 -48 L 56 -36 L 44 -30 L 38 -30 C 38 -30 36 -30 36 -32 L 36 -38 M 44 -36 C 42 -36 42 -38 42 -38 L 42 -42 C 42 -44 44 -44 44 -44 L 48 -44 C 50 -44 50 -42 50 -42 L 50 -38 C 50 -36 48 -36 48 -36 L 44 -36 M 46 -42 M 42 -50 C 42 -50 42 -52 44 -52 C 45.3334 -52 46.6666 -52 48 -52 C 50 -52 50 -50 50 -50 M 44 -40 C 44 -41 45 -42 46 -42 C 47 -42 48 -41 48 -40 C 48 -39 47 -38 46 -38 C 45 -38 44 -39 44 -40 M 50 -48 C 51 -48 51 -47 51 -47 C 51 -47 51 -46 50 -46 C 50 -46 49 -46 49 -47 C 49 -47 49 -48 50 -48 -->

 <g>
  <title>Layer 1</title>
  <path fill="#7A164E" d="m60,-38c0,0 0,0 0,0c1,-1 1,-3 0,-4l-4,-2m4,6l-32,16c0,0 -2,0 -2,-2l0,-32c0,-2 2,-2 2,-2l16,8l12,6" id="svg_1"/>
  <path fill="#CF0046" d="m36,-38m0,0l0,-10c0,-2 2,-2 2,-2l16,0c2,0 2,2 2,2l0,12l-12,6l-6,0c0,0 -2,0 -2,-2l0,-6m6,-12c0,0 0,-2 2,-2c1.3334,0 2.6666,0 4,0c2,0 2,2 2,2m-14,12m0,0l0,-10c0,-2 2,-2 2,-2l16,0c2,0 2,2 2,2l0,12l-12,6l-6,0c0,0 -2,0 -2,-2l0,-6m8,2c-2,0 -2,-2 -2,-2l0,-4c0,-2 2,-2 2,-2l4,0c2,0 2,2 2,2l0,4c0,2 -2,2 -2,2l-4,0m2,-6m-4,-8c0,0 0,-2 2,-2c1.3334,0 2.6666,0 4,0c2,0 2,2 2,2m-6,10c0,-1 1,-2 2,-2c1,0 2,1 2,2c0,1 -1,2 -2,2c-1,0 -2,-1 -2,-2m6,-8c1,0 1,1 1,1c0,0 0,1 -1,1c0,0 -1,0 -1,-1c0,0 0,-1 1,-1" id="svg_2"/>
  <path fill="#FFFFFF" d="m44,-36c-2,0 -2,-2 -2,-2l0,-4c0,-2 2,-2 2,-2l4,0c2,0 2,2 2,2l0,4c0,2 -2,2 -2,2l-4,0" id="svg_3"/>
  <path fill="#F50133" d="m46,-42m-2,2c0,-1 1,-2 2,-2c1,0 2,1 2,2c0,1 -1,2 -2,2c-1,0 -2,-1 -2,-2" id="svg_4"/>
  <path fill="#FFFFFF" d="m50,-48c1,0 1,1 1,1c0,0 0,1 -1,1c0,0 -1,0 -1,-1c0,0 0,-1 1,-1" id="svg_5"/>
  <g stroke="null" id="svg_6">
   <!-- M 36 -38 M 60 -38 C 60 -38 60 -38 60 -38 C 61 -39 61 -41 60 -42 L 56 -44 M 60 -38 L 28 -22 C 28 -22 26 -22 26 -24 L 26 -56 C 26 -58 28 -58 28 -58 L 44 -50 L 56 -44 M 36 -38 L 36 -48 C 36 -50 38 -50 38 -50 L 54 -50 C 56 -50 56 -48 56 -48 L 56 -36 L 44 -30 L 38 -30 C 38 -30 36 -30 36 -32 L 36 -38 M 44 -36 C 42 -36 42 -38 42 -38 L 42 -42 C 42 -44 44 -44 44 -44 L 48 -44 C 50 -44 50 -42 50 -42 L 50 -38 C 50 -36 48 -36 48 -36 L 44 -36 M 46 -42 M 42 -50 C 42 -50 42 -52 44 -52 C 45.3334 -52 46.6666 -52 48 -52 C 50 -52 50 -50 50 -50 M 44 -40 C 44 -41 45 -42 46 -42 C 47 -42 48 -41 48 -40 C 48 -39 47 -38 46 -38 C 45 -38 44 -39 44 -40 M 50 -48 C 51 -48 51 -47 51 -47 C 51 -47 51 -46 50 -46 C 50 -46 49 -46 49 -47 C 49 -47 49 -48 50 -48 -->
  </g>
  <g stroke="null" id="svg_14">
   <path stroke="null" id="svg_7" fill="#7A164E" d="m833.45462,606.97198c0,0 0,0 0,0c15.48599,-15.48599 15.48599,-46.45797 0,-61.94397l-61.94397,-30.97199m61.94397,92.91595l-495.55173,247.77586c0,0 -30.97199,0 -30.97199,-30.97199l0,-495.55173c0,-30.97199 30.97199,-30.97199 30.97199,-30.97199l247.77586,123.88793l185.8319,92.91595"/>
   <path stroke="null" id="svg_8" fill="#CF0046" d="m461.79082,606.97198m0,0l0,-154.85992c0,-30.97199 30.97199,-30.97199 30.97199,-30.97199l247.77586,0c30.97199,0 30.97199,30.97199 30.97199,30.97199l0,185.8319l-185.8319,92.91595l-92.91595,0c0,0 -30.97199,0 -30.97199,-30.97199l0,-92.91595m92.91595,-185.8319c0,0 0,-30.97199 30.97199,-30.97199c20.64902,0 41.29495,0 61.94397,0c30.97199,0 30.97199,30.97199 30.97199,30.97199m-216.80388,185.8319m0,0l0,-154.85992c0,-30.97199 30.97199,-30.97199 30.97199,-30.97199l247.77586,0c30.97199,0 30.97199,30.97199 30.97199,30.97199l0,185.8319l-185.8319,92.91595l-92.91595,0c0,0 -30.97199,0 -30.97199,-30.97199l0,-92.91595m123.88793,30.97199c-30.97199,0 -30.97199,-30.97199 -30.97199,-30.97199l0,-61.94397c0,-30.97199 30.97199,-30.97199 30.97199,-30.97199l61.94397,0c30.97199,0 30.97199,30.97199 30.97199,30.97199l0,61.94397c0,30.97199 -30.97199,30.97199 -30.97199,30.97199l-61.94397,0m30.97199,-92.91595m-61.94397,-123.88793c0,0 0,-30.97199 30.97199,-30.97199c20.64902,0 41.29495,0 61.94397,0c30.97199,0 30.97199,30.97199 30.97199,30.97199m-92.91595,154.85992c0,-15.48599 15.48599,-30.97199 30.97199,-30.97199c15.48599,0 30.97199,15.48599 30.97199,30.97199c0,15.48599 -15.48599,30.97199 -30.97199,30.97199c-15.48599,0 -30.97199,-15.48599 -30.97199,-30.97199m92.91595,-123.88793c15.48599,0 15.48599,15.48599 15.48599,15.48599c0,0 0,15.48599 -15.48599,15.48599c0,0 -15.48599,0 -15.48599,-15.48599c0,0 0,-15.48599 15.48599,-15.48599"/>
   <path stroke="null" id="svg_9" fill="#FFFFFF" d="m585.67875,637.94396c-30.97199,0 -30.97199,-30.97199 -30.97199,-30.97199l0,-61.94397c0,-30.97199 30.97199,-30.97199 30.97199,-30.97199l61.94397,0c30.97199,0 30.97199,30.97199 30.97199,30.97199l0,61.94397c0,30.97199 -30.97199,30.97199 -30.97199,30.97199l-61.94397,0"/>
   <path stroke="null" id="svg_10" fill="#F50133" d="m616.65074,545.02801m-30.97199,30.97199c0,-15.48599 15.48599,-30.97199 30.97199,-30.97199c15.48599,0 30.97199,15.48599 30.97199,30.97199c0,15.48599 -15.48599,30.97199 -30.97199,30.97199c-15.48599,0 -30.97199,-15.48599 -30.97199,-30.97199"/>
   <path stroke="null" id="svg_11" fill="#FFFFFF" d="m678.59471,452.11206c15.48599,0 15.48599,15.48599 15.48599,15.48599c0,0 0,15.48599 -15.48599,15.48599c0,0 -15.48599,0 -15.48599,-15.48599c0,0 0,-15.48599 15.48599,-15.48599"/>
  </g>
 </g>
</svg>