<svg width="1152" height="1152" xmlns="http://www.w3.org/2000/svg">
 <!-- M 36 -38 M 60 -38 C 60 -38 60 -38 60 -38 C 61 -39 61 -41 60 -42 L 56 -44 M 60 -38 L 28 -22 C 28 -22 26 -22 26 -24 L 26 -56 C 26 -58 28 -58 28 -58 L 44 -50 L 56 -44 M 36 -38 L 36 -48 C 36 -50 38 -50 38 -50 L 54 -50 C 56 -50 56 -48 56 -48 L 56 -36 L 44 -30 L 38 -30 C 38 -30 36 -30 36 -32 L 36 -38 M 44 -36 C 42 -36 42 -38 42 -38 L 42 -42 C 42 -44 44 -44 44 -44 L 48 -44 C 50 -44 50 -42 50 -42 L 50 -38 C 50 -36 48 -36 48 -36 L 44 -36 M 46 -42 M 42 -50 C 42 -50 42 -52 44 -52 C 45.3334 -52 46.6666 -52 48 -52 C 50 -52 50 -50 50 -50 M 44 -40 C 44 -41 45 -42 46 -42 C 47 -42 48 -41 48 -40 C 48 -39 47 -38 46 -38 C 45 -38 44 -39 44 -40 M 50 -48 C 51 -48 51 -47 51 -47 C 51 -47 51 -46 50 -46 C 50 -46 49 -46 49 -47 C 49 -47 49 -48 50 -48 -->

 <g>
  <title>Layer 1</title>
  <path fill="#7A164E" d="m60,-38c0,0 0,0 0,0c1,-1 1,-3 0,-4l-4,-2m4,6l-32,16c0,0 -2,0 -2,-2l0,-32c0,-2 2,-2 2,-2l16,8l12,6" id="svg_1"/>
  <path fill="#CF0046" d="m36,-38m0,0l0,-10c0,-2 2,-2 2,-2l16,0c2,0 2,2 2,2l0,12l-12,6l-6,0c0,0 -2,0 -2,-2l0,-6m6,-12c0,0 0,-2 2,-2c1.3334,0 2.6666,0 4,0c2,0 2,2 2,2m-14,12m0,0l0,-10c0,-2 2,-2 2,-2l16,0c2,0 2,2 2,2l0,12l-12,6l-6,0c0,0 -2,0 -2,-2l0,-6m8,2c-2,0 -2,-2 -2,-2l0,-4c0,-2 2,-2 2,-2l4,0c2,0 2,2 2,2l0,4c0,2 -2,2 -2,2l-4,0m2,-6m-4,-8c0,0 0,-2 2,-2c1.3334,0 2.6666,0 4,0c2,0 2,2 2,2m-6,10c0,-1 1,-2 2,-2c1,0 2,1 2,2c0,1 -1,2 -2,2c-1,0 -2,-1 -2,-2m6,-8c1,0 1,1 1,1c0,0 0,1 -1,1c0,0 -1,0 -1,-1c0,0 0,-1 1,-1" id="svg_2"/>
  <path fill="#FFFFFF" d="m44,-36c-2,0 -2,-2 -2,-2l0,-4c0,-2 2,-2 2,-2l4,0c2,0 2,2 2,2l0,4c0,2 -2,2 -2,2l-4,0" id="svg_3"/>
  <path fill="#F50133" d="m46,-42m-2,2c0,-1 1,-2 2,-2c1,0 2,1 2,2c0,1 -1,2 -2,2c-1,0 -2,-1 -2,-2" id="svg_4"/>
  <path fill="#FFFFFF" d="m50,-48c1,0 1,1 1,1c0,0 0,1 -1,1c0,0 -1,0 -1,-1c0,0 0,-1 1,-1" id="svg_5"/>
  <g stroke="null" id="svg_6">
   <path stroke="null" id="svg_7" fill="#4C0B30" d="m832.94583,606.9108c0,0 0,0 0,0c15.45539,-15.45539 15.45539,-46.36616 0,-61.82155l-61.82155,-30.91077m61.82155,92.73233l-494.57241,247.2862c0,0 -30.91077,0 -30.91077,-30.91077l0,-494.57241c0,-30.91077 30.91077,-30.91077 30.91077,-30.91077l247.2862,123.6431l185.46465,92.73233"/>
   <path stroke="null" id="svg_8" fill="#8B002E" d="m462.01652,606.9108m0,0l0,-154.55387c0,-30.91077 30.91077,-30.91077 30.91077,-30.91077l247.2862,0c30.91077,0 30.91077,30.91077 30.91077,30.91077l0,185.46465l-185.46465,92.73233l-92.73233,0c0,0 -30.91077,0 -30.91077,-30.91077l0,-92.73233m92.73233,-185.46465c0,0 0,-30.91077 30.91077,-30.91077c20.60821,0 41.21333,0 61.82155,0c30.91077,0 30.91077,30.91077 30.91077,30.91077m-216.37543,185.46465m0,0l0,-154.55387c0,-30.91077 30.91077,-30.91077 30.91077,-30.91077l247.2862,0c30.91077,0 30.91077,30.91077 30.91077,30.91077l0,185.46465l-185.46465,92.73233l-92.73233,0c0,0 -30.91077,0 -30.91077,-30.91077l0,-92.73233m123.6431,30.91077c-30.91077,0 -30.91077,-30.91077 -30.91077,-30.91077l0,-61.82155c0,-30.91077 30.91077,-30.91077 30.91077,-30.91077l61.82155,0c30.91077,0 30.91077,30.91077 30.91077,30.91077l0,61.82155c0,30.91077 -30.91077,30.91077 -30.91077,30.91077l-61.82155,0m30.91077,-92.73233m-61.82155,-123.6431c0,0 0,-30.91077 30.91077,-30.91077c20.60821,0 41.21333,0 61.82155,0c30.91077,0 30.91077,30.91077 30.91077,30.91077m-92.73233,154.55387c0,-15.45539 15.45539,-30.91077 30.91077,-30.91077c15.45539,0 30.91077,15.45539 30.91077,30.91077c0,15.45539 -15.45539,30.91077 -30.91077,30.91077c-15.45539,0 -30.91077,-15.45539 -30.91077,-30.91077m92.73233,-123.6431c15.45539,0 15.45539,15.45539 15.45539,15.45539c0,0 0,15.45539 -15.45539,15.45539c0,0 -15.45539,0 -15.45539,-15.45539c0,0 0,-15.45539 15.45539,-15.45539"/>
   <path stroke="null" id="svg_9" fill="#FFFFFF" d="m585.65962,637.82157c-30.91077,0 -30.91077,-30.91077 -30.91077,-30.91077l0,-61.82155c0,-30.91077 30.91077,-30.91077 30.91077,-30.91077l61.82155,0c30.91077,0 30.91077,30.91077 30.91077,30.91077l0,61.82155c0,30.91077 -30.91077,30.91077 -30.91077,30.91077l-61.82155,0"/>
   <path stroke="null" id="svg_10" fill="#B30122" d="m616.5704,545.08924m-30.91077,30.91077c0,-15.45539 15.45539,-30.91077 30.91077,-30.91077c15.45539,0 30.91077,15.45539 30.91077,30.91077c0,15.45539 -15.45539,30.91077 -30.91077,30.91077c-15.45539,0 -30.91077,-15.45539 -30.91077,-30.91077"/>
   <path stroke="null" id="svg_11" fill="#FFFFFF" d="m678.39195,452.35691c15.45539,0 15.45539,15.45539 15.45539,15.45539c0,0 0,15.45539 -15.45539,15.45539c0,0 -15.45539,0 -15.45539,-15.45539c0,0 0,-15.45539 15.45539,-15.45539"/>
   <!-- M 36 -38 M 60 -38 C 60 -38 60 -38 60 -38 C 61 -39 61 -41 60 -42 L 56 -44 M 60 -38 L 28 -22 C 28 -22 26 -22 26 -24 L 26 -56 C 26 -58 28 -58 28 -58 L 44 -50 L 56 -44 M 36 -38 L 36 -48 C 36 -50 38 -50 38 -50 L 54 -50 C 56 -50 56 -48 56 -48 L 56 -36 L 44 -30 L 38 -30 C 38 -30 36 -30 36 -32 L 36 -38 M 44 -36 C 42 -36 42 -38 42 -38 L 42 -42 C 42 -44 44 -44 44 -44 L 48 -44 C 50 -44 50 -42 50 -42 L 50 -38 C 50 -36 48 -36 48 -36 L 44 -36 M 46 -42 M 42 -50 C 42 -50 42 -52 44 -52 C 45.3334 -52 46.6666 -52 48 -52 C 50 -52 50 -50 50 -50 M 44 -40 C 44 -41 45 -42 46 -42 C 47 -42 48 -41 48 -40 C 48 -39 47 -38 46 -38 C 45 -38 44 -39 44 -40 M 50 -48 C 51 -48 51 -47 51 -47 C 51 -47 51 -46 50 -46 C 50 -46 49 -46 49 -47 C 49 -47 49 -48 50 -48 -->
  </g>
 </g>
</svg>