<svg width="22" height="22" viewBox="0 0 22 22" fill="none" xmlns="http://www.w3.org/2000/svg">
    <path d="M17 9.05601V19.4H2.60001V5.00001H12.944C12.8564 4.61361 12.8 4.21401 12.8 3.80001C12.8 3.38601 12.8564 2.98641 12.944 2.60001H2.60001C1.27761 2.60001 0.200012 3.68001 0.200012 5.00001V19.4C0.200012 20.72 1.28001 21.8 2.60001 21.8H17C18.32 21.8 19.4 20.72 19.4 19.4V9.05601C19.0136 9.14361 18.614 9.20001 18.2 9.20001C17.786 9.20001 17.3864 9.14361 17 9.05601ZM18.2 0.200012C17.7273 0.200012 17.2591 0.293129 16.8224 0.474046C16.3856 0.654963 15.9887 0.920137 15.6544 1.25443C15.3201 1.58872 15.055 1.98558 14.874 2.42235C14.6931 2.85912 14.6 3.32725 14.6 3.80001C14.6 4.27277 14.6931 4.7409 14.874 5.17767C15.055 5.61444 15.3201 6.01131 15.6544 6.3456C15.9887 6.67989 16.3856 6.94506 16.8224 7.12598C17.2591 7.30689 17.7273 7.40001 18.2 7.40001C19.1548 7.40001 20.0705 7.02073 20.7456 6.3456C21.4207 5.67046 21.8 4.75479 21.8 3.80001C21.8 2.84523 21.4207 1.92956 20.7456 1.25443C20.0705 0.579297 19.1548 0.200012 18.2 0.200012Z"
            fill="#000" />
</svg>
